<svg version="1.1" viewBox="0.0 0.0 638.7926509186352 485.48293963254594" fill="none" stroke="none" stroke-linecap="square" stroke-miterlimit="10" xmlns="http://www.w3.org/2000/svg" xmlns:xlink="http://www.w3.org/1999/xlink"><clipPath id="p.0"><path d="m0 0l638.79266 0l0 485.48294l-638.79266 0l0 -485.48294z" clip-rule="nonzero"></path></clipPath><g clip-path="url(#p.0)"><path fill="#ff4081" d="m0 0l638.79266 0l0 485.48294l-638.79266 0z" fill-rule="nonzero"></path><path fill="#ffffff" d="m242.04079 18.42115l0 0c0 -6.250654 5.067154 -11.317812 11.31781 -11.317812l45.269882 0l0 0c3.0016785 0 5.8804016 1.192409 8.002899 3.3149104c2.1224976 2.1225014 3.314911 5.001231 3.314911 8.002901l0 134.75021c0 6.250656 -5.0671387 11.31781 -11.31781 11.31781l-45.269882 0c-6.250656 0 -11.31781 -5.067154 -11.31781 -11.31781z" fill-rule="nonzero"></path><path stroke="#ffffff" stroke-width="2.0" stroke-linejoin="round" stroke-linecap="butt" d="m242.04079 18.42115l0 0c0 -6.250654 5.067154 -11.317812 11.31781 -11.317812l45.269882 0l0 0c3.0016785 0 5.8804016 1.192409 8.002899 3.3149104c2.1224976 2.1225014 3.314911 5.001231 3.314911 8.002901l0 134.75021c0 6.250656 -5.0671387 11.31781 -11.31781 11.31781l-45.269882 0c-6.250656 0 -11.31781 -5.067154 -11.31781 -11.31781z" fill-rule="nonzero"></path><path fill="#ffffff" d="m339.14148 18.42115l0 0c0 -6.250654 5.067169 -11.317812 11.31781 -11.317812l45.269897 0l0 0c3.0016785 0 5.8804016 1.192409 8.002899 3.3149104c2.1224976 2.1225014 3.314911 5.001231 3.314911 8.002901l0 134.75021c0 6.250656 -5.067169 11.31781 -11.31781 11.31781l-45.269897 0c-6.250641 0 -11.31781 -5.067154 -11.31781 -11.31781z" fill-rule="nonzero"></path><path stroke="#ffffff" stroke-width="2.0" stroke-linejoin="round" stroke-linecap="butt" d="m339.14148 18.42115l0 0c0 -6.250654 5.067169 -11.317812 11.31781 -11.317812l45.269897 0l0 0c3.0016785 0 5.8804016 1.192409 8.002899 3.3149104c2.1224976 2.1225014 3.314911 5.001231 3.314911 8.002901l0 134.75021c0 6.250656 -5.067169 11.31781 -11.31781 11.31781l-45.269897 0c-6.250641 0 -11.31781 -5.067154 -11.31781 -11.31781z" fill-rule="nonzero"></path><path fill="#ffffff" d="m284.1942 458.1076l0 0c0 -7.897217 16.477356 -14.299194 36.80316 -14.299194l0 0c20.325806 0 36.80316 6.4019775 36.80316 14.299194l0 0c0 7.8972473 -16.477356 14.299225 -36.80316 14.299225l0 0c-20.325806 0 -36.80316 -6.4019775 -36.80316 -14.299225z" fill-rule="nonzero"></path><path stroke="#ffffff" stroke-width="2.0" stroke-linejoin="round" stroke-linecap="butt" d="m284.1942 458.1076l0 0c0 -7.897217 16.477356 -14.299194 36.80316 -14.299194l0 0c20.325806 0 36.80316 6.4019775 36.80316 14.299194l0 0c0 7.8972473 -16.477356 14.299225 -36.80316 14.299225l0 0c-20.325806 0 -36.80316 -6.4019775 -36.80316 -14.299225z" fill-rule="nonzero"></path><path fill="#ffffff" d="m8.365325 136.91252l0 0c6.888339 -21.995712 60.19818 -24.653801 119.07087 -5.9369965q26.503563 8.42601 46.736748 36.874527q50.490265 26.93988 47.389236 36.84201l0 0c-6.888336 21.995712 -60.19818 24.653793 -119.07086 5.9369965l0 0c-58.872692 -18.716797 -101.01433 -51.72081 -94.12599 -73.71654z" fill-rule="nonzero"></path><path stroke="#ffffff" stroke-width="2.0" stroke-linejoin="round" stroke-linecap="butt" d="m8.365325 136.91252l0 0c6.888339 -21.995712 60.19818 -24.653801 119.07087 -5.9369965q26.503563 8.42601 46.736748 36.874527q50.490265 26.93988 47.389236 36.84201l0 0c-6.888336 21.995712 -60.19818 24.653793 -119.07086 5.9369965l0 0c-58.872692 -18.716797 -101.01433 -51.72081 -94.12599 -73.71654z" fill-rule="nonzero"></path><path fill="#ffffff" d="m632.7159 136.91252l0 0c-6.8883667 -21.995712 -60.19818 -24.653801 -119.07086 -5.9369965q-26.50357 8.42601 -46.736755 36.874527q-50.490265 26.93988 -47.38925 36.84201l0 0c6.888336 21.995712 60.19818 24.653793 119.07089 5.9369965l0 0c58.87268 -18.716797 101.01434 -51.72081 94.12598 -73.71654z" fill-rule="nonzero"></path><path stroke="#ffffff" stroke-width="2.0" stroke-linejoin="round" stroke-linecap="butt" d="m632.7159 136.91252l0 0c-6.8883667 -21.995712 -60.19818 -24.653801 -119.07086 -5.9369965q-26.50357 8.42601 -46.736755 36.874527q-50.490265 26.93988 -47.38925 36.84201l0 0c6.888336 21.995712 60.19818 24.653793 119.07089 5.9369965l0 0c58.87268 -18.716797 101.01434 -51.72081 94.12598 -73.71654z" fill-rule="nonzero"></path><path fill="#ffffff" d="m294.8085 450.94485l0 0c-2.0003967 -6.2012634 0.5589905 -12.603241 5.716522 -14.299225l0 0c2.4767456 -0.8144531 5.233673 -0.41253662 7.664276 1.117279c2.4305725 1.5298157 4.3357544 4.062256 5.296356 7.0401917l0 0c2.0004272 6.2012634 -0.55895996 12.603241 -5.716522 14.299225l0 0c-5.1575623 1.6959839 -10.960236 -1.9562378 -12.960632 -8.157471z" fill-rule="nonzero"></path><path stroke="#ffffff" stroke-width="2.0" stroke-linejoin="round" stroke-linecap="butt" d="m294.8085 450.94485l0 0c-2.0003967 -6.2012634 0.5589905 -12.603241 5.716522 -14.299225l0 0c2.4767456 -0.8144531 5.233673 -0.41253662 7.664276 1.117279c2.4305725 1.5298157 4.3357544 4.062256 5.296356 7.0401917l0 0c2.0004272 6.2012634 -0.55895996 12.603241 -5.716522 14.299225l0 0c-5.1575623 1.6959839 -10.960236 -1.9562378 -12.960632 -8.157471z" fill-rule="nonzero"></path><path fill="#ffffff" d="m211.59787 250.76778l0 0c0 -18.212357 14.989655 -32.97638 33.480316 -32.97638l0 0c8.879532 0 17.395386 3.474289 23.674164 9.658554c6.278778 6.1842804 9.806152 14.571945 9.806152 23.317825l0 0c0 18.212357 -14.989655 32.976364 -33.480316 32.976364l0 0c-18.490662 0 -33.480316 -14.764008 -33.480316 -32.976364z" fill-rule="nonzero"></path><path stroke="#ffffff" stroke-width="2.0" stroke-linejoin="round" stroke-linecap="butt" d="m211.59787 250.76778l0 0c0 -18.212357 14.989655 -32.97638 33.480316 -32.97638l0 0c8.879532 0 17.395386 3.474289 23.674164 9.658554c6.278778 6.1842804 9.806152 14.571945 9.806152 23.317825l0 0c0 18.212357 -14.989655 32.976364 -33.480316 32.976364l0 0c-18.490662 0 -33.480316 -14.764008 -33.480316 -32.976364z" fill-rule="nonzero"></path><path fill="#ffffff" d="m363.5979 250.76778l0 0c0 -18.212357 14.989624 -32.97638 33.480316 -32.97638l0 0c8.879517 0 17.395355 3.474289 23.674133 9.658554c6.278778 6.1842804 9.806183 14.571945 9.806183 23.317825l0 0c0 18.212357 -14.989655 32.976364 -33.480316 32.976364l0 0c-18.490692 0 -33.480316 -14.764008 -33.480316 -32.976364z" fill-rule="nonzero"></path><path stroke="#ffffff" stroke-width="2.0" stroke-linejoin="round" stroke-linecap="butt" d="m363.5979 250.76778l0 0c0 -18.212357 14.989624 -32.97638 33.480316 -32.97638l0 0c8.879517 0 17.395355 3.474289 23.674133 9.658554c6.278778 6.1842804 9.806183 14.571945 9.806183 23.317825l0 0c0 18.212357 -14.989655 32.976364 -33.480316 32.976364l0 0c-18.490692 0 -33.480316 -14.764008 -33.480316 -32.976364z" fill-rule="nonzero"></path><path fill="#ffffff" d="m348.09985 450.94485l0 0c2.0003967 -6.2012634 -0.55895996 -12.603241 -5.716522 -14.299225l0 0c-2.4767456 -0.8144531 -5.233673 -0.41253662 -7.6642456 1.117279c-2.430603 1.5298157 -4.3357544 4.062256 -5.2963867 7.0401917l0 0c-2.0003967 6.2012634 0.55895996 12.603241 5.716522 14.299225l0 0c5.1575623 1.6959839 10.960236 -1.9562378 12.960632 -8.157471z" fill-rule="nonzero"></path><path stroke="#ffffff" stroke-width="2.0" stroke-linejoin="round" stroke-linecap="butt" d="m348.09985 450.94485l0 0c2.0003967 -6.2012634 -0.55895996 -12.603241 -5.716522 -14.299225l0 0c-2.4767456 -0.8144531 -5.233673 -0.41253662 -7.6642456 1.117279c-2.430603 1.5298157 -4.3357544 4.062256 -5.2963867 7.0401917l0 0c-2.0003967 6.2012634 0.55895996 12.603241 5.716522 14.299225l0 0c5.1575623 1.6959839 10.960236 -1.9562378 12.960632 -8.157471z" fill-rule="nonzero"></path></g></svg>